<?xml version="1.0" encoding="UTF-8"?>
<svg xmlns="http://www.w3.org/2000/svg" xmlns:xlink="http://www.w3.org/1999/xlink" width="23px" height="23px" viewBox="0 0 23 23" version="1.1">
<g id="surface1">
<path style=" stroke:none;fill-rule:nonzero;fill:rgb(0%,0%,0%);fill-opacity:1;" d="M 20.269531 5.164062 L 20.261719 5.121094 C 21.234375 4.535156 22.019531 3.574219 22.371094 2.46875 C 21.457031 3.011719 20.390625 3.425781 19.316406 3.636719 C 18.457031 2.722656 17.304688 2.15625 15.949219 2.15625 C 13.34375 2.15625 11.183594 4.265625 11.183594 6.875 C 11.183594 7.246094 11.238281 7.609375 11.320312 7.949219 L 11.320312 7.996094 C 7.4375 7.773438 3.925781 5.800781 1.617188 2.964844 C 1.210938 3.664062 0.988281 4.660156 0.988281 5.523438 C 0.988281 6.875 1.789062 8.679688 3.054688 9.523438 L 3.054688 9.613281 C 2.296875 9.582031 1.523438 9.0625 0.898438 8.714844 C 0.898438 8.734375 0.925781 8.761719 0.925781 8.78125 C 0.925781 11.070312 2.601562 13.042969 4.761719 13.476562 C 4.386719 13.574219 3.855469 13.65625 3.457031 13.65625 C 3.152344 13.65625 2.847656 13.578125 2.5625 13.523438 C 3.160156 15.398438 4.894531 16.621094 6.960938 16.621094 L 6.960938 16.664062 C 5.355469 17.914062 3.316406 18.777344 1.125 18.777344 C 0.742188 18.777344 0.269531 18.730469 0 18.6875 C 2.085938 20.027344 4.566406 20.84375 7.230469 20.84375 C 15.910156 20.84375 20.664062 13.703125 20.664062 7.457031 L 20.664062 6.828125 C 21.585938 6.160156 22.367188 5.261719 23 4.3125 C 23 4.3125 21.34375 5.097656 20.269531 5.164062 Z M 18.867188 7.457031 C 18.867188 8.804688 18.601562 10.222656 18.101562 11.550781 C 17.578125 12.949219 16.824219 14.210938 15.855469 15.300781 C 14.34375 17.007812 11.617188 19.046875 7.230469 19.046875 C 7.105469 19.046875 6.976562 19.042969 6.847656 19.039062 C 7.269531 18.792969 7.675781 18.519531 8.0625 18.222656 L 8.761719 17.679688 L 8.761719 14.824219 L 8.019531 14.816406 C 7.210938 14.808594 6.558594 14.148438 6.558594 13.339844 L 6.558594 11.871094 L 5.585938 11.648438 C 5.15625 11.554688 4.851562 11.171875 4.851562 10.730469 L 4.851562 9.480469 L 4.828125 8.5625 L 4.03125 8.027344 C 3.683594 7.738281 3.371094 7.324219 3.148438 6.875 C 5.507812 8.59375 8.308594 9.625 11.21875 9.789062 L 13.117188 9.898438 L 13.117188 7.738281 L 13.066406 7.53125 C 13.011719 7.296875 12.980469 7.074219 12.980469 6.875 C 12.980469 6.097656 13.292969 5.367188 13.851562 4.816406 C 14.414062 4.257812 15.160156 3.953125 15.949219 3.953125 C 16.742188 3.953125 17.4375 4.261719 18.007812 4.867188 L 18.464844 5.355469 L 18.519531 5.570312 L 18.53125 5.617188 L 18.867188 6.914062 Z M 18.867188 7.457031 "/>
</g>
</svg>
