<?xml version="1.0" encoding="UTF-8"?>
<svg xmlns="http://www.w3.org/2000/svg" xmlns:xlink="http://www.w3.org/1999/xlink" width="23px" height="23px" viewBox="0 0 23 23" version="1.1">
<g id="surface1">
<path style=" stroke:none;fill-rule:nonzero;fill:rgb(0%,0%,0%);fill-opacity:1;" d="M 20.304688 0 L 2.695312 0 C 1.210938 0 0 1.210938 0 2.695312 L 0 20.304688 C 0 21.789062 1.210938 23 2.695312 23 L 20.304688 23 C 21.789062 23 23 21.789062 23 20.304688 L 23 2.695312 C 23 1.210938 21.789062 0 20.304688 0 Z M 21.203125 20.304688 C 21.203125 20.800781 20.800781 21.203125 20.304688 21.203125 L 15.003906 21.203125 L 15.003906 14.644531 L 17.878906 14.644531 L 18.214844 11.859375 L 15.003906 11.859375 L 15.003906 8.851562 C 15.003906 8.082031 15.582031 7.503906 16.351562 7.503906 L 18.375 7.503906 L 18.375 4.894531 C 17.839844 4.820312 16.816406 4.714844 16.351562 4.714844 C 15.304688 4.714844 14.253906 5.160156 13.46875 5.929688 C 12.664062 6.722656 12.21875 7.761719 12.21875 8.859375 L 12.21875 11.859375 L 9.296875 11.859375 L 9.296875 14.644531 L 12.21875 14.644531 L 12.21875 21.203125 L 2.695312 21.203125 C 2.199219 21.203125 1.796875 20.800781 1.796875 20.304688 L 1.796875 2.695312 C 1.796875 2.199219 2.199219 1.796875 2.695312 1.796875 L 20.304688 1.796875 C 20.800781 1.796875 21.203125 2.199219 21.203125 2.695312 Z M 21.203125 20.304688 "/>
</g>
</svg>
