<?xml version="1.0" encoding="UTF-8"?>
<svg xmlns="http://www.w3.org/2000/svg" xmlns:xlink="http://www.w3.org/1999/xlink" width="23px" height="23px" viewBox="0 0 23 24" version="1.1">
<defs>
<clipPath id="clip1">
  <path d="M 0 0.523438 L 23 0.523438 L 23 23.476562 L 0 23.476562 Z M 0 0.523438 "/>
</clipPath>
</defs>
<g id="surface1">
<g clip-path="url(#clip1)" clip-rule="nonzero">
<path style=" stroke:none;fill-rule:nonzero;fill:rgb(0%,0%,0%);fill-opacity:1;" d="M 16.320312 0.523438 L 6.679688 0.523438 C 2.996094 0.523438 0 3.511719 0 7.191406 L 0 16.808594 C 0 20.488281 2.996094 23.476562 6.679688 23.476562 L 16.320312 23.476562 C 20.003906 23.476562 23 20.488281 23 16.808594 L 23 7.191406 C 23 3.511719 20.003906 0.523438 16.320312 0.523438 Z M 21.203125 16.808594 C 21.203125 19.496094 19.011719 21.683594 16.320312 21.683594 L 6.679688 21.683594 C 3.988281 21.683594 1.796875 19.496094 1.796875 16.808594 L 1.796875 7.191406 C 1.796875 4.503906 3.988281 2.316406 6.679688 2.316406 L 16.320312 2.316406 C 19.011719 2.316406 21.203125 4.503906 21.203125 7.191406 Z M 21.203125 16.808594 "/>
</g>
<path style=" stroke:none;fill-rule:nonzero;fill:rgb(0%,0%,0%);fill-opacity:1;" d="M 11.5 5.8125 C 8.082031 5.8125 5.300781 8.589844 5.300781 12 C 5.300781 15.410156 8.082031 18.1875 11.5 18.1875 C 14.917969 18.1875 17.699219 15.410156 17.699219 12 C 17.699219 8.589844 14.917969 5.8125 11.5 5.8125 Z M 11.5 16.394531 C 9.074219 16.394531 7.097656 14.421875 7.097656 12 C 7.097656 9.578125 9.074219 7.605469 11.5 7.605469 C 13.925781 7.605469 15.902344 9.578125 15.902344 12 C 15.902344 14.421875 13.925781 16.394531 11.5 16.394531 Z M 11.5 16.394531 "/>
<path style=" stroke:none;fill-rule:nonzero;fill:rgb(0%,0%,0%);fill-opacity:1;" d="M 17.789062 6.621094 C 18.285156 6.621094 18.6875 6.21875 18.6875 5.722656 C 18.6875 5.226562 18.285156 4.824219 17.789062 4.824219 C 17.292969 4.824219 16.890625 5.226562 16.890625 5.722656 C 16.890625 6.21875 17.292969 6.621094 17.789062 6.621094 Z M 17.789062 6.621094 "/>
</g>
</svg>
