<?xml version="1.0" encoding="UTF-8"?>
<svg xmlns="http://www.w3.org/2000/svg" xmlns:xlink="http://www.w3.org/1999/xlink" width="21px" height="21px" viewBox="0 0 21 21" version="1.1">
<g id="surface1">
<path style=" stroke:none;fill-rule:nonzero;fill:rgb(43.137255%,61.176471%,62.352941%);fill-opacity:1;" d="M 2.78125 5.949219 C 0.925781 7.804688 0.925781 10.824219 2.78125 12.679688 L 3.769531 11.691406 C 2.457031 10.382812 2.457031 8.246094 3.769531 6.933594 C 5.078125 5.625 7.214844 5.625 8.527344 6.933594 L 9.511719 5.949219 C 7.65625 4.09375 4.636719 4.09375 2.78125 5.949219 Z M 2.78125 5.949219 "/>
<path style=" stroke:none;fill-rule:nonzero;fill:rgb(43.137255%,61.176471%,62.352941%);fill-opacity:1;" d="M 4.746094 7.894531 C 3.964844 8.675781 3.964844 9.945312 4.746094 10.726562 L 5.730469 9.742188 C 5.617188 9.628906 5.550781 9.472656 5.550781 9.3125 C 5.550781 9.148438 5.617188 8.996094 5.730469 8.878906 C 5.84375 8.765625 6 8.703125 6.160156 8.703125 C 6.324219 8.703125 6.476562 8.765625 6.59375 8.878906 L 7.578125 7.894531 C 6.796875 7.113281 5.527344 7.113281 4.746094 7.894531 Z M 4.746094 7.894531 "/>
<path style=" stroke:none;fill-rule:nonzero;fill:rgb(43.137255%,61.176471%,62.352941%);fill-opacity:1;" d="M 16.984375 5.480469 L 14.644531 3.148438 L 9.789062 7.996094 L 11.671875 9.941406 C 11.355469 10.5 10.671875 11.574219 9.503906 12.742188 C 8.335938 13.910156 7.253906 14.601562 6.691406 14.921875 L 4.785156 13.039062 L 0.00390625 17.792969 L 2.328125 20.132812 C 3.21875 21.023438 4.570312 21.253906 5.695312 20.707031 C 7.410156 19.875 10 18.335938 12.59375 15.742188 C 15.1875 13.148438 16.722656 10.5625 17.554688 8.84375 C 17.753906 8.4375 17.851562 8.003906 17.851562 7.570312 C 17.851562 6.804688 17.550781 6.046875 16.984375 5.480469 Z M 16.304688 8.234375 C 15.515625 9.855469 14.0625 12.300781 11.609375 14.757812 C 9.152344 17.214844 6.707031 18.667969 5.085938 19.453125 C 4.496094 19.738281 3.785156 19.617188 3.316406 19.148438 L 1.972656 17.796875 L 4.789062 15 L 6.410156 16.605469 L 6.847656 16.410156 C 6.917969 16.378906 8.597656 15.617188 10.488281 13.726562 C 12.382812 11.832031 13.128906 10.167969 13.15625 10.097656 L 13.347656 9.667969 L 11.742188 8.011719 L 14.644531 5.117188 L 16 6.464844 C 16.46875 6.933594 16.589844 7.644531 16.304688 8.234375 Z M 16.304688 8.234375 "/>
</g>
</svg>
