<?xml version="1.0" encoding="UTF-8"?>
<svg xmlns="http://www.w3.org/2000/svg" xmlns:xlink="http://www.w3.org/1999/xlink" width="17px" height="17px" viewBox="0 0 17 17" version="1.1">
<g id="surface1">
<path style=" stroke:none;fill-rule:nonzero;fill:rgb(43.137255%,61.176471%,62.352941%);fill-opacity:1;" d="M 2.25 4.816406 C 0.75 6.316406 0.75 8.761719 2.25 10.265625 L 3.050781 9.464844 C 1.988281 8.40625 1.988281 6.675781 3.050781 5.613281 C 4.109375 4.554688 5.839844 4.554688 6.902344 5.613281 L 7.699219 4.816406 C 6.199219 3.3125 3.753906 3.3125 2.25 4.816406 Z M 2.25 4.816406 "/>
<path style=" stroke:none;fill-rule:nonzero;fill:rgb(43.137255%,61.176471%,62.352941%);fill-opacity:1;" d="M 3.84375 6.390625 C 3.210938 7.023438 3.210938 8.050781 3.84375 8.683594 L 4.640625 7.886719 C 4.546875 7.792969 4.492188 7.667969 4.492188 7.539062 C 4.492188 7.40625 4.546875 7.28125 4.640625 7.1875 C 4.730469 7.097656 4.855469 7.046875 4.988281 7.046875 C 5.121094 7.046875 5.242188 7.097656 5.335938 7.1875 L 6.132812 6.390625 C 5.503906 5.757812 4.472656 5.757812 3.84375 6.390625 Z M 3.84375 6.390625 "/>
<path style=" stroke:none;fill-rule:nonzero;fill:rgb(43.137255%,61.176471%,62.352941%);fill-opacity:1;" d="M 13.75 4.4375 L 11.855469 2.546875 L 7.925781 6.472656 L 9.449219 8.046875 C 9.191406 8.5 8.640625 9.371094 7.695312 10.316406 C 6.75 11.261719 5.871094 11.820312 5.417969 12.078125 L 3.875 10.554688 L 0.00390625 14.402344 L 1.882812 16.296875 C 2.605469 17.019531 3.699219 17.207031 4.609375 16.761719 C 6 16.089844 8.09375 14.84375 10.195312 12.742188 C 12.292969 10.644531 13.539062 8.550781 14.210938 7.160156 C 14.371094 6.832031 14.453125 6.480469 14.453125 6.128906 C 14.453125 5.507812 14.207031 4.894531 13.75 4.4375 Z M 13.199219 6.664062 C 12.558594 7.976562 11.382812 9.957031 9.398438 11.945312 C 7.410156 13.9375 5.429688 15.113281 4.117188 15.746094 C 3.640625 15.980469 3.0625 15.878906 2.683594 15.5 L 1.597656 14.40625 L 3.875 12.144531 L 5.1875 13.441406 L 5.542969 13.285156 C 5.601562 13.257812 6.960938 12.640625 8.492188 11.113281 C 10.023438 9.578125 10.628906 8.230469 10.648438 8.175781 L 10.804688 7.828125 L 9.503906 6.484375 L 11.855469 4.140625 L 12.953125 5.234375 C 13.332031 5.613281 13.429688 6.1875 13.199219 6.664062 Z M 13.199219 6.664062 "/>
</g>
</svg>
