<?xml version="1.0" encoding="UTF-8"?>
<svg xmlns="http://www.w3.org/2000/svg" xmlns:xlink="http://www.w3.org/1999/xlink" width="63px" height="63px" viewBox="0 0 63 63" version="1.1">
<g id="surface1">
<path style=" stroke:none;fill-rule:nonzero;fill:rgb(0%,0%,0%);fill-opacity:1;" d="M 38.625 25.648438 L 29.160156 34.589844 L 24.617188 29.914062 C 24.113281 29.394531 23.285156 29.382812 22.765625 29.886719 C 22.246094 30.390625 22.234375 31.222656 22.738281 31.738281 L 28.1875 37.332031 C 28.695312 37.84375 29.511719 37.859375 30.039062 37.371094 L 40.449219 27.550781 C 40.703125 27.3125 40.851562 26.984375 40.859375 26.636719 C 40.871094 26.289062 40.742188 25.953125 40.503906 25.699219 C 39.996094 25.171875 39.160156 25.152344 38.625 25.648438 Z M 38.625 25.648438 "/>
<path style=" stroke:none;fill-rule:nonzero;fill:rgb(0%,0%,0%);fill-opacity:1;" d="M 31.601562 11.886719 C 20.785156 11.886719 11.988281 20.683594 11.988281 31.503906 C 11.988281 42.320312 20.785156 51.117188 31.601562 51.117188 C 42.421875 51.117188 51.214844 42.320312 51.214844 31.503906 C 51.214844 20.683594 42.421875 11.886719 31.601562 11.886719 Z M 31.601562 48.492188 C 22.226562 48.492188 14.613281 40.863281 14.613281 31.503906 C 14.613281 22.140625 22.226562 14.515625 31.601562 14.515625 C 40.984375 14.515625 48.589844 22.121094 48.589844 31.503906 C 48.589844 40.886719 40.984375 48.492188 31.601562 48.492188 Z M 31.601562 48.492188 "/>
<path style=" stroke:none;fill-rule:nonzero;fill:rgb(0%,0%,0%);fill-opacity:1;" d="M 58.59375 24.28125 L 59.027344 16.496094 C 59.058594 15.972656 58.773438 15.484375 58.304688 15.25 L 51.375 11.742188 L 47.867188 4.8125 C 47.628906 4.347656 47.144531 4.066406 46.621094 4.089844 L 38.824219 4.511719 L 32.324219 0.214844 C 31.886719 -0.0742188 31.316406 -0.0742188 30.878906 0.214844 L 24.378906 4.511719 L 16.59375 4.078125 C 16.074219 4.046875 15.582031 4.328125 15.347656 4.796875 L 11.84375 11.730469 L 4.910156 15.238281 C 4.445312 15.472656 4.164062 15.960938 4.1875 16.484375 L 4.621094 24.269531 L 0.328125 30.769531 C 0.0390625 31.207031 0.0390625 31.773438 0.328125 32.210938 L 4.609375 38.722656 L 4.175781 46.511719 C 4.144531 47.03125 4.429688 47.523438 4.898438 47.757812 L 11.828125 51.261719 L 15.335938 58.195312 C 15.574219 58.660156 16.058594 58.941406 16.582031 58.917969 L 24.367188 58.484375 L 30.867188 62.777344 C 31.300781 63.074219 31.875 63.074219 32.3125 62.777344 L 38.808594 58.484375 L 46.59375 58.917969 C 47.117188 58.945312 47.609375 58.664062 47.84375 58.195312 L 51.347656 51.261719 L 58.28125 47.757812 C 58.746094 47.519531 59.027344 47.03125 59.003906 46.511719 L 58.570312 38.722656 L 62.863281 32.226562 C 63.152344 31.789062 63.152344 31.21875 62.863281 30.78125 Z M 56.152344 37.648438 C 55.992188 37.882812 55.917969 38.164062 55.941406 38.449219 L 56.351562 45.8125 L 49.796875 49.121094 C 49.550781 49.246094 49.347656 49.449219 49.222656 49.699219 L 45.914062 56.25 L 38.546875 55.84375 C 38.265625 55.835938 37.988281 55.90625 37.746094 56.054688 L 31.601562 60.113281 L 25.457031 56.054688 C 25.246094 55.910156 24.992188 55.832031 24.734375 55.832031 L 24.667969 55.832031 L 17.304688 56.238281 L 13.996094 49.6875 C 13.871094 49.4375 13.667969 49.234375 13.417969 49.109375 L 6.851562 45.8125 L 7.261719 38.449219 C 7.269531 38.167969 7.199219 37.886719 7.050781 37.648438 L 2.992188 31.503906 L 7.050781 25.359375 C 7.210938 25.125 7.285156 24.839844 7.261719 24.558594 L 6.851562 17.191406 L 13.40625 13.882812 C 13.65625 13.757812 13.855469 13.554688 13.980469 13.304688 L 17.289062 6.753906 L 24.65625 7.160156 C 24.9375 7.171875 25.214844 7.097656 25.457031 6.953125 L 31.601562 2.894531 L 37.746094 6.953125 C 37.980469 7.113281 38.265625 7.1875 38.546875 7.160156 L 45.914062 6.753906 L 49.222656 13.304688 C 49.347656 13.554688 49.550781 13.757812 49.796875 13.882812 L 56.351562 17.191406 L 55.941406 24.558594 C 55.933594 24.839844 56.007812 25.117188 56.152344 25.359375 L 60.210938 31.503906 Z M 56.152344 37.648438 "/>
</g>
</svg>
