<?xml version="1.0" encoding="UTF-8"?>
<svg xmlns="http://www.w3.org/2000/svg" xmlns:xlink="http://www.w3.org/1999/xlink" width="63px" height="63px" viewBox="0 0 63 63" version="1.1">
<g id="surface1">
<path style=" stroke:none;fill-rule:nonzero;fill:rgb(0%,0%,0%);fill-opacity:1;" d="M 51.417969 40.667969 L 46.65625 37.28125 C 47.457031 34.339844 47.453125 31.238281 46.644531 28.300781 L 51.421875 24.957031 L 47.605469 18.355469 L 42.292969 20.789062 C 40.148438 18.625 37.457031 17.078125 34.507812 16.308594 L 34 10.5 L 26.375 10.5 L 25.867188 16.308594 C 22.917969 17.078125 20.230469 18.625 18.082031 20.789062 L 12.769531 18.359375 L 8.957031 24.957031 L 13.734375 28.304688 C 12.925781 31.238281 12.921875 34.339844 13.71875 37.28125 L 8.957031 40.667969 L 12.769531 47.234375 L 18.082031 44.800781 C 20.230469 46.964844 22.917969 48.511719 25.867188 49.277344 L 26.375 55.089844 L 34 55.089844 L 34.507812 49.277344 C 37.457031 48.511719 40.144531 46.964844 42.292969 44.800781 L 47.605469 47.234375 L 51.421875 40.667969 Z M 35.449219 7.835938 C 35.789062 7.835938 36.113281 7.964844 36.359375 8.199219 C 36.601562 8.433594 36.746094 8.75 36.761719 9.085938 L 37.230469 14.429688 C 39.171875 15.167969 40.980469 16.214844 42.59375 17.523438 L 47.449219 15.257812 C 47.75 15.101562 48.097656 15.070312 48.421875 15.164062 C 48.746094 15.261719 49.019531 15.476562 49.1875 15.769531 L 54.449219 24.878906 C 54.621094 25.167969 54.667969 25.515625 54.589844 25.84375 C 54.511719 26.171875 54.308594 26.457031 54.023438 26.636719 L 49.632812 29.714844 C 49.96875 31.808594 49.957031 33.898438 49.632812 35.90625 L 54.023438 38.980469 C 54.308594 39.160156 54.511719 39.445312 54.589844 39.773438 C 54.671875 40.105469 54.621094 40.449219 54.449219 40.742188 L 49.1875 49.816406 C 49.019531 50.109375 48.746094 50.324219 48.421875 50.421875 C 48.097656 50.515625 47.75 50.484375 47.449219 50.328125 L 42.59375 48.0625 C 41.011719 49.351562 39.210938 50.398438 37.230469 51.160156 L 36.761719 56.5 C 36.746094 56.835938 36.601562 57.15625 36.355469 57.386719 C 36.113281 57.621094 35.789062 57.75 35.449219 57.75 L 24.925781 57.75 C 24.585938 57.75 24.261719 57.621094 24.019531 57.386719 C 23.773438 57.15625 23.628906 56.835938 23.613281 56.5 L 23.144531 51.160156 C 21.203125 50.417969 19.394531 49.375 17.78125 48.0625 L 12.925781 50.328125 C 12.625 50.484375 12.277344 50.519531 11.953125 50.421875 C 11.628906 50.328125 11.355469 50.113281 11.183594 49.820312 L 5.925781 40.738281 C 5.753906 40.449219 5.707031 40.101562 5.785156 39.773438 C 5.863281 39.445312 6.066406 39.160156 6.351562 38.980469 L 10.742188 35.90625 C 10.414062 33.855469 10.414062 31.761719 10.742188 29.710938 L 6.351562 26.636719 C 6.070312 26.457031 5.867188 26.171875 5.789062 25.84375 C 5.710938 25.515625 5.757812 25.171875 5.925781 24.878906 L 11.183594 15.769531 C 11.351562 15.476562 11.625 15.257812 11.949219 15.164062 C 12.273438 15.066406 12.621094 15.101562 12.921875 15.257812 L 17.777344 17.523438 C 19.390625 16.214844 21.203125 15.167969 23.140625 14.429688 L 23.609375 9.085938 C 23.625 8.75 23.769531 8.433594 24.015625 8.199219 C 24.257812 7.964844 24.582031 7.835938 24.921875 7.835938 Z M 30.1875 23.625 C 32.625 23.625 34.960938 24.59375 36.683594 26.316406 C 38.40625 28.039062 39.375 30.375 39.375 32.8125 C 39.375 35.25 38.40625 37.585938 36.683594 39.308594 C 34.960938 41.03125 32.625 42 30.1875 42 C 27.75 42 25.414062 41.03125 23.691406 39.308594 C 21.96875 37.585938 21 35.25 21 32.8125 C 21 30.375 21.96875 28.039062 23.691406 26.316406 C 25.414062 24.59375 27.75 23.625 30.1875 23.625 Z M 30.1875 26.25 C 28.445312 26.25 26.777344 26.941406 25.546875 28.171875 C 24.316406 29.402344 23.625 31.070312 23.625 32.8125 C 23.625 34.554688 24.316406 36.222656 25.546875 37.453125 C 26.777344 38.683594 28.445312 39.375 30.1875 39.375 C 31.929688 39.375 33.597656 38.683594 34.828125 37.453125 C 36.058594 36.222656 36.75 34.554688 36.75 32.8125 C 36.75 31.070312 36.058594 29.402344 34.828125 28.171875 C 33.597656 26.941406 31.929688 26.25 30.1875 26.25 Z M 30.1875 26.25 "/>
</g>
</svg>
